<?xml version="1.0" encoding="UTF-8"?>
<svg width="640px" height="640px" viewBox="0 0 640 640" version="1.1" xmlns="http://www.w3.org/2000/svg"
     xmlns:xlink="http://www.w3.org/1999/xlink">
  <title>Placeholder/Image/Expertise</title>
  <g id="Placeholder/Image/Expertise" stroke="none" stroke-width="1" fill="none" fill-rule="evenodd">
    <path
      d="M635.260936,-0.00108652051 C636.468388,2.28002775 636.106837,4.6889791 635.620128,7.10253366 L635.469734,7.83666268 C635.016001,10.038705 634.579945,12.2341768 635.258566,14.3294479 C636.533964,19.6426595 637.354457,21.7436088 637.536212,26.3754315 C638.616354,32.194277 636.610821,40.7927569 637.625531,46.9360733 C636.66327,51.9802445 637.075334,56.902739 637.607745,61.7910965 L637.787953,63.4194047 C638.271219,67.7588289 638.739486,72.0789659 638.312045,76.4412974 C637.916547,79.9226903 638.340964,83.0242719 638.797666,86.1269135 L638.993075,87.4577924 C639.442926,90.5685097 639.812543,93.7346971 639.314292,97.3372259 C638.688018,104.107853 636.95979,109.913179 637.003411,115.997009 C638.504669,118.712441 637.456444,121.551542 636.378931,124.305605 L636.170692,124.837531 C635.825272,125.722119 635.493724,126.596456 635.260643,127.453537 C632.967417,136.108799 635.03319,145.269695 634.105721,154.976784 C632.685957,159.77625 633.138786,163.49685 633.505411,168.469367 C633.78791,173.752836 634.229315,179.039008 633.503334,184.322477 C633.124038,191.058313 633.211677,197.79415 633.350925,204.529986 L633.467946,210.041125 L633.503334,211.878171 C633.046351,217.064298 631.593352,219.400489 634.550241,224.105318 C637.963076,228.672246 636.718835,233.47712 635.139127,238.333369 C633.896963,243.952124 633.300808,249.719595 634.627098,255.52492 C635.424741,261.330246 634.103644,267.173427 634.694607,272.946306 C635.790859,277.386631 635.089124,281.808214 634.219156,286.169664 L633.978946,287.357629 C633.132181,291.51007 632.267125,295.604292 632.801242,299.604298 C633.260718,300.47799 632.949903,301.349986 632.563537,302.219336 L632.311588,302.777831 C632.090535,303.27393 631.893424,303.769098 631.849886,304.263159 C633.407783,305.137428 632.990421,306.013366 632.408934,306.89051 L632.267153,307.101047 C631.837921,307.732727 631.398718,308.365013 631.625548,308.997731 C630.560985,313.926986 631.797956,318.085621 630.515287,323.263637 C631.766798,327.292484 630.697041,332.681406 630.796747,336.40471 C633.177214,342.477724 635.096544,347.355604 634.132725,354.183013 C633.243685,358.855395 636.475803,363.900918 634.093258,368.613858 C634.806775,371.820713 633.458675,374.832885 634.357062,377.774755 C633.624281,378.824226 634.062649,379.693624 634.574478,380.590021 L634.767714,380.92784 C635.184561,381.664275 635.559324,382.435623 635.303225,383.352951 C635.697893,387.533218 637.399117,390.731961 637.50817,394.766216 C638.564424,401.463837 639.490854,409.38904 638.825113,416.746418 C640.429747,419.596355 637.193474,422.065038 638.183259,424.896047 C637.948535,428.213762 637.712774,432.080374 638.214417,435.425129 C638.196056,437.069501 638.039594,438.713873 637.883892,440.358246 L637.781726,441.454494 C637.501211,444.560531 637.3335,447.666567 638.214417,450.772604 C638.299002,452.793002 637.837497,454.711547 637.399678,456.600085 L637.247064,457.265499 C636.647968,459.923107 636.229679,462.537757 637.595412,465.311606 C638.261154,468.886194 639.64976,472.939377 637.551791,476.411216 C637.287839,478.117006 637.002902,479.289903 636.684065,480.4352 L636.521761,481.007888 C636.136181,482.34971 635.701528,483.768595 635.197288,486.066931 C636.126834,487.554089 635.562875,489.582032 635.271029,491.098934 C636.27016,497.069199 635.52964,503.05028 635.271029,509.02325 C636.468533,514.214785 634.320711,519.238676 634.752768,524.232825 C635.749153,526.467528 634.76926,528.39214 633.706813,530.300538 L633.429025,530.798206 C632.505126,532.457162 631.64332,534.12318 632.088763,535.989488 C631.785455,537.46332 631.837895,538.149124 631.912108,538.743189 L631.96286,539.148366 C632.024222,539.691878 632.038465,540.294136 631.74291,541.502791 C632.903024,546.824114 631.249576,555.114346 632.459543,559.694795 C632.55094,561.665955 631.500917,562.409535 634.579322,564.43207 C636.872548,567.333381 635.344769,573.660565 634.681105,576.848492 C635.753977,581.545208 634.211658,586.287892 634.667603,590.976497 C635.284531,593.923775 635.887956,597.060327 635.256488,599.83185 C635.024535,600.600966 635.273734,601.268268 635.561899,601.932973 L635.735936,602.332279 C635.907574,602.73286 636.061402,603.139651 636.101908,603.574081 C636.600435,607.451509 637.01899,612.007622 636.447761,616.314973 C636.368568,616.996963 636.26964,617.681457 636.163857,618.367715 L636.03445,619.192025 C635.401042,623.179825 634.710272,627.217047 636.474764,631.159519 C636.459934,634.67453 636.199629,637.406769 635.739328,639.999814 L629,639.998913 L629,640 L0,640 L0,0 L624.187612,0.000158367974 C624.187616,-0.000174868468 624.187619,-0.000508104745 624.187623,-0.000841340859 L635.260936,-0.00108652051 Z M629.001478,604.025195 L629.001152,614.385874 C630.132809,610.436758 630.102193,607.352458 629.001478,604.025195 Z"
      id="Combined-Shape" fill="#D8D8D8" fill-rule="nonzero"></path>
  </g>
</svg>
