<svg width="159" height="40" viewBox="0 0 159 40" fill="none" xmlns="http://www.w3.org/2000/svg">
<g clip-path="url(#clip0_1_7)">
<path d="M77.9392 29.28C79.2832 29.28 80.9352 28.608 81.2152 28.44C81.4952 28.3 81.6072 28.076 81.4672 27.768L80.9632 26.536C80.8512 26.284 80.6832 26.116 80.3192 26.284C79.9832 26.452 79.1992 26.788 78.6112 26.788C78.0792 26.788 77.7152 26.62 77.7152 25.668V20.124H80.5712C80.8792 20.124 81.1032 19.872 81.1032 19.592V18.332C81.1032 18.024 80.8792 17.8 80.5712 17.8H77.7152V14.664C77.7152 14.384 77.4912 14.132 77.2112 14.132L75.6152 14.16C75.3352 14.16 75.0832 14.412 75.0832 14.692V17.8H73.9072C73.5992 17.8 73.3752 18.024 73.3752 18.332V19.592C73.3752 19.872 73.5992 20.124 73.9072 20.124H75.0832V25.948C75.0832 27.936 75.7272 29.28 77.9392 29.28ZM90.8432 29.28C92.5792 29.28 93.6712 28.44 94.2872 27.852L94.5672 28.608C94.6792 28.888 94.7912 29 95.0432 29H95.8272C96.1072 29 96.3592 28.748 96.3592 28.468V22.504C96.3592 19.704 96.0232 17.52 92.4392 17.52C90.3672 17.52 88.7712 18.08 88.5752 18.164C88.3232 18.248 88.1272 18.444 88.2112 18.808L88.4352 19.844C88.5192 20.152 88.7152 20.376 89.0512 20.292C89.6392 20.124 90.8992 19.788 92.1872 19.788C93.6152 19.788 93.9512 20.488 93.9232 22.252C93.9232 22.252 92.8872 21.916 91.7112 21.916C88.8552 21.916 87.2312 23.484 87.2312 25.528C87.2312 27.852 88.7432 29.28 90.8432 29.28ZM91.3752 27.292C90.3392 27.292 89.6672 26.508 89.6672 25.5C89.6672 24.352 90.5912 23.652 91.9352 23.652C92.9432 23.652 93.7272 23.988 93.8952 24.1V25.892C93.5592 26.452 92.4952 27.292 91.3752 27.292ZM48.3563 29C48.6363 29 48.8883 28.748 48.8883 28.468V23.568L53.9563 28.776C54.0403 28.888 54.2643 29 54.4603 29H56.7563C57.2323 29 57.3163 28.524 57.0643 28.272L51.5763 22.784L56.2243 18.556C56.4763 18.332 56.3923 17.8 55.9163 17.8H53.9563C53.6763 17.8 53.4523 17.968 53.2563 18.136L48.8883 22.056V9.93199C48.8883 9.65199 48.6363 9.39999 48.3563 9.39999H46.7323C46.4523 9.39999 46.2003 9.65199 46.2003 9.93199V28.468C46.2003 28.748 46.4523 29 46.7323 29H48.3563ZM64.5643 13.236C65.4883 13.236 66.2163 12.508 66.2163 11.612C66.2163 10.688 65.4883 9.95999 64.5643 9.95999C63.6683 9.95999 62.9683 10.688 62.9683 11.612C62.9683 12.508 63.6683 13.236 64.5643 13.236ZM65.4043 29C65.6843 29 65.9363 28.748 65.9363 28.468V18.332C65.9363 18.052 65.6843 17.8 65.4043 17.8H63.8083C63.5283 17.8 63.2763 18.052 63.2763 18.332V28.468C63.2763 28.748 63.5283 29 63.8083 29H65.4043ZM5.40587 28.496C5.68587 28.496 5.93787 28.244 5.93787 27.964V21.132C6.07787 20.768 7.02987 19.452 8.70987 19.452C10.2779 19.452 11.0899 20.432 11.0899 22.224V27.964C11.0899 28.244 11.3139 28.496 11.6219 28.496H13.1059C13.3859 28.496 13.6379 28.244 13.6379 27.964V22.168C13.6379 21.608 13.6099 21.076 13.5539 20.824C13.7499 20.656 14.7299 19.452 16.4379 19.452C17.9499 19.452 18.7619 20.46 18.7619 22.224V27.964C18.7619 28.244 18.9859 28.496 19.2939 28.496H20.8619C21.1699 28.496 21.3939 28.244 21.3939 27.964V22.336C21.3939 19.424 20.1899 17.016 16.7739 17.016C14.6459 17.016 13.0219 18.5 12.7139 18.808C11.9019 17.66 10.7259 17.016 9.10187 17.016C6.94587 17.016 5.65787 18.332 5.40587 18.584L5.09786 17.632C5.01386 17.436 4.87386 17.296 4.62186 17.296H3.83787C3.55787 17.296 3.30586 17.548 3.30586 17.828V27.964C3.30586 28.244 3.55787 28.496 3.83787 28.496H5.40587ZM31.6939 28.776C33.4299 28.776 34.5219 27.936 35.1379 27.348L35.4179 28.104C35.5299 28.384 35.6419 28.496 35.8939 28.496H36.6779C36.9579 28.496 37.2099 28.244 37.2099 27.964V22C37.2099 19.2 36.8739 17.016 33.2899 17.016C31.2179 17.016 29.6219 17.576 29.4259 17.66C29.1739 17.744 28.9779 17.94 29.0619 18.304L29.2859 19.34C29.3699 19.648 29.5659 19.872 29.9019 19.788C30.4899 19.62 31.7499 19.284 33.0379 19.284C34.4659 19.284 34.8019 19.984 34.7739 21.748C34.7739 21.748 33.7379 21.412 32.5619 21.412C29.7059 21.412 28.0819 22.98 28.0819 25.024C28.0819 27.348 29.5939 28.776 31.6939 28.776ZM32.2259 26.788C31.1899 26.788 30.5179 26.004 30.5179 24.996C30.5179 23.848 31.4419 23.148 32.7859 23.148C33.7939 23.148 34.5779 23.484 34.7459 23.596V25.388C34.4099 25.948 33.3459 26.788 32.2259 26.788Z" fill="#430099"/>
<path d="M136.946 0.973233C143.633 -1.75353 151.272 1.4444 153.999 8.13098L158.029 17.9954C159.853 22.4766 159.021 27.3787 156.254 30.9476C156.645 26.286 156.445 14.196 145.488 6.95807C145.488 6.95807 139.733 3.1787 135.162 7.60969C130.581 12.0407 133.388 22.5467 140.245 20.5919C140.245 20.5919 144.094 19.6495 142.931 15.8702C142.931 15.8702 142.109 13.2136 139.423 13.805C137.297 14.2762 137.458 16.221 137.458 16.221C137.458 16.221 134.571 12.5419 138.059 10.2663C141.538 7.99063 146.991 12.3514 148.034 18.0857C149.077 23.8099 149.427 29.0529 141.598 36.4312C141.598 36.4312 139.493 38.4461 135.092 40C131.032 39.6993 127.252 37.5038 125.007 33.955C127.473 34.2157 130.691 33.7144 134.009 30.8573C134.009 30.8573 134.05 30.8223 134.119 30.755L134.215 30.659C134.826 30.0292 136.527 27.9606 135.463 25.3336C134.18 22.1558 128.616 21.8049 128.094 25.9251C128.094 25.9251 128.091 25.9543 128.09 26.0056L128.09 26.0982C128.104 26.5456 128.315 27.7163 130.109 27.8699C130.109 27.8699 131.523 27.8098 131.583 26.5867C131.643 25.3737 130.781 25.1432 130.781 25.1432C130.781 25.1432 132.826 23.9001 133.588 26.4364C134.25 28.6218 130.821 30.8774 127.804 30.4964C125.829 30.2458 124.024 29.8649 122.42 28.1205L119.934 22.0355C117.207 15.3489 120.405 7.71996 127.092 4.98318L136.946 0.973233ZM152.495 21.5843C152.495 21.5843 154.299 27.9301 153.066 33.8648C152.395 34.3159 151.663 34.6969 150.881 35.0176L148.184 36.1204C149.919 33.5841 152.756 28.3812 152.495 21.5843ZM144.776 22.0154C142.28 25.4539 137.768 23.9803 137.768 23.9803C140.926 27.6694 138.761 32.4513 138.761 32.4513C144.194 29.0629 144.776 22.0154 144.776 22.0154ZM130.33 8.31143L130.31 8.32585C129.879 8.63734 122.695 13.9583 124.776 20.8926C124.776 20.8926 126.029 17.3238 130.49 18.0355C130.49 18.0355 130.486 18.03 130.478 18.0191L130.442 17.9706C129.984 17.3406 126.5 12.2545 130.33 8.31143Z" fill="#EE0B6F"/>
</g>
<defs>
<clipPath id="clip0_1_7">
<rect width="159" height="40" fill="white"/>
</clipPath>
</defs>
</svg>
    