<?xml version="1.0" encoding="UTF-8"?>
<svg width="159px" height="40px" viewBox="0 0 159 40" version="1.1" xmlns="http://www.w3.org/2000/svg">
    <title>Logo/Takima/White@2x</title>
    <g id="Logo/Takima/White" stroke="none" stroke-width="1" fill="none" fill-rule="evenodd">
       <path d="M65.404,29.28 C66.748,29.28 68.4,28.608 68.68,28.44 C68.96,28.3 69.072,28.076 68.932,27.768 L68.428,26.536 C68.316,26.284 68.148,26.116 67.784,26.284 C67.448,26.452 66.664,26.788 66.076,26.788 C65.544,26.788 65.18,26.62 65.18,25.668 L65.18,20.124 L68.036,20.124 C68.344,20.124 68.568,19.872 68.568,19.592 L68.568,18.332 C68.568,18.024 68.344,17.8 68.036,17.8 L65.18,17.8 L65.18,14.664 C65.18,14.384 64.956,14.132 64.676,14.132 L63.08,14.16 C62.8,14.16 62.548,14.412 62.548,14.692 L62.548,17.8 L61.372,17.8 C61.064,17.8 60.84,18.024 60.84,18.332 L60.84,19.592 C60.84,19.872 61.064,20.124 61.372,20.124 L62.548,20.124 L62.548,25.948 C62.548,27.936 63.192,29.28 65.404,29.28 Z M78.308,29.28 C80.044,29.28 81.136,28.44 81.752,27.852 L82.032,28.608 C82.144,28.888 82.256,29 82.508,29 L83.292,29 C83.572,29 83.824,28.748 83.824,28.468 L83.824,22.504 C83.824,19.704 83.488,17.52 79.904,17.52 C77.832,17.52 76.236,18.08 76.04,18.164 C75.788,18.248 75.592,18.444 75.676,18.808 L75.9,19.844 C75.984,20.152 76.18,20.376 76.516,20.292 C77.104,20.124 78.364,19.788 79.652,19.788 C81.08,19.788 81.416,20.488 81.388,22.252 C81.388,22.252 80.352,21.916 79.176,21.916 C76.32,21.916 74.696,23.484 74.696,25.528 C74.696,27.852 76.208,29.28 78.308,29.28 Z M78.84,27.292 C77.804,27.292 77.132,26.508 77.132,25.5 C77.132,24.352 78.056,23.652 79.4,23.652 C80.408,23.652 81.192,23.988 81.36,24.1 L81.36,25.892 C81.024,26.452 79.96,27.292 78.84,27.292 Z M93.508,29 C93.788,29 94.04,28.748 94.04,28.468 L94.04,23.568 L99.108,28.776 C99.192,28.888 99.416,29 99.612,29 L101.908,29 C102.384,29 102.468,28.524 102.216,28.272 L96.728,22.784 L101.376,18.556 C101.628,18.332 101.544,17.8 101.068,17.8 L99.108,17.8 C98.828,17.8 98.604,17.968 98.408,18.136 L94.04,22.056 L94.04,9.932 C94.04,9.652 93.788,9.4 93.508,9.4 L91.884,9.4 C91.604,9.4 91.352,9.652 91.352,9.932 L91.352,28.468 C91.352,28.748 91.604,29 91.884,29 L93.508,29 Z M109.716,13.236 C110.64,13.236 111.368,12.508 111.368,11.612 C111.368,10.688 110.64,9.96 109.716,9.96 C108.82,9.96 108.12,10.688 108.12,11.612 C108.12,12.508 108.82,13.236 109.716,13.236 Z M110.556,29 C110.836,29 111.088,28.748 111.088,28.468 L111.088,18.332 C111.088,18.052 110.836,17.8 110.556,17.8 L108.96,17.8 C108.68,17.8 108.428,18.052 108.428,18.332 L108.428,28.468 C108.428,28.748 108.68,29 108.96,29 L110.556,29 Z M120.828,29 C121.108,29 121.36,28.748 121.36,28.468 L121.36,21.636 C121.5,21.272 122.452,19.956 124.132,19.956 C125.7,19.956 126.512,20.936 126.512,22.728 L126.512,28.468 C126.512,28.748 126.736,29 127.044,29 L128.528,29 C128.808,29 129.06,28.748 129.06,28.468 L129.06,22.672 C129.06,22.112 129.032,21.58 128.976,21.328 C129.172,21.16 130.152,19.956 131.86,19.956 C133.372,19.956 134.184,20.964 134.184,22.728 L134.184,28.468 C134.184,28.748 134.408,29 134.716,29 L136.284,29 C136.592,29 136.816,28.748 136.816,28.468 L136.816,22.84 C136.816,19.928 135.612,17.52 132.196,17.52 C130.068,17.52 128.444,19.004 128.136,19.312 C127.324,18.164 126.148,17.52 124.524,17.52 C122.368,17.52 121.08,18.836 120.828,19.088 L120.52,18.136 C120.436,17.94 120.296,17.8 120.044,17.8 L119.26,17.8 C118.98,17.8 118.728,18.052 118.728,18.332 L118.728,28.468 C118.728,28.748 118.98,29 119.26,29 L120.828,29 Z M147.116,29.28 C148.852,29.28 149.944,28.44 150.56,27.852 L150.84,28.608 C150.952,28.888 151.064,29 151.316,29 L152.1,29 C152.38,29 152.632,28.748 152.632,28.468 L152.632,22.504 C152.632,19.704 152.296,17.52 148.712,17.52 C146.64,17.52 145.044,18.08 144.848,18.164 C144.596,18.248 144.4,18.444 144.484,18.808 L144.708,19.844 C144.792,20.152 144.988,20.376 145.324,20.292 C145.912,20.124 147.172,19.788 148.46,19.788 C149.888,19.788 150.224,20.488 150.196,22.252 C150.196,22.252 149.16,21.916 147.984,21.916 C145.128,21.916 143.504,23.484 143.504,25.528 C143.504,27.852 145.016,29.28 147.116,29.28 Z M147.648,27.292 C146.612,27.292 145.94,26.508 145.94,25.5 C145.94,24.352 146.864,23.652 148.208,23.652 C149.216,23.652 150,23.988 150.168,24.1 L150.168,25.892 C149.832,26.452 148.768,27.292 147.648,27.292 Z" id="takima" fill="#FFFFFF" fill-rule="nonzero"></path>
        <path d="M26.6451588,7.18292013 C25.7921655,6.69726 25.2502278,6.51107795 25.2502278,6.51107795 C25.2639896,6.52455828 25.2766046,6.53880892 25.2899841,6.5526744 C24.7892078,6.23954552 24.252498,5.98149343 23.6836773,5.79045785 L23.6836773,5.79045785 L23.3853033,5.71641867 C20.7027556,5.09715881 18.0781725,5.78127197 16.2992153,7.31774108 C15.3389482,8.14697415 14.6168364,9.21346108 14.1290574,10.3581339 L14.1290574,10.3581339 L14.2270784,10.111678 L14.2270784,10.111678 L14.128981,10.358288 C13.2566364,12.4042174 13.140808,14.7039623 13.8143711,16.368976 C14.9699793,19.2271918 17.3610903,20.6264503 19.5916472,20.6064224 C20.9479481,20.5944827 22.2430855,20.05681 23.1662722,19.000337 L23.1662722,19.000337 L23.3531252,18.7733636 C23.5950514,18.4609773 23.8072276,18.1095951 23.9812378,17.7170478 L23.9812378,17.7170478 L23.9818017,17.7163834 C24.0802845,17.4127389 24.1357139,17.0903664 24.1357139,16.7541284 C24.1357139,15.0525252 22.7664158,13.6729093 21.0775383,13.6729093 C19.9284288,13.6729093 18.9291699,14.3118771 18.4066041,15.2558856 L18.4066041,15.2558856 C18.4054573,15.2555005 17.4459547,16.1763998 17.2548187,13.6729093 C17.1668962,12.5209186 17.6370907,9.82138559 21.0775383,9.82138559 C24.29321,9.82138559 26.9117728,12.4126908 28.3487331,15.9953782 C30.0723974,20.2921381 30.0949514,26.0162727 27.3850255,30.4270377 C23.6750762,36.4650715 18.2624876,39.0679313 15.7559304,40 C11.7164627,39.1387993 8.1284581,37.0516586 5.38642137,34.1452987 C5.7037071,34.1822734 6.01220056,34.2119301 6.3061677,34.2308026 C10.0612251,34.4738337 13.1098439,32.4714265 13.1098439,32.4714265 C13.1098439,32.4714265 14.7295302,31.5405132 15.8801688,29.7846035 C16.1370555,29.3929036 16.3706237,28.9611478 16.557937,28.4885658 C17.0881482,27.1459246 17.0361592,25.8803139 16.6359204,24.8715998 C16.2242135,23.9988445 15.540329,23.2836166 14.691303,22.8387656 C13.071999,22.1824659 11.4492546,22.4066246 10.2905883,23.1796254 C9.10822112,23.9688027 8.95837051,25.7666939 8.95837051,25.7666939 C8.95837051,25.7666939 8.897207,27.6712724 10.6113144,28.2308988 C10.6149232,28.2324639 10.6185371,28.2340151 10.6221561,28.2355526 C10.7884044,28.288444 10.9685014,28.33216 11.1705783,28.3574214 L11.1705783,28.3572288 L11.2068941,28.3572288 C11.3682129,28.3587694 11.5310608,28.342593 11.6931441,28.2909826 C12.513882,28.029079 12.9684033,27.1466949 12.7084584,26.3197728 C12.5318487,25.7578354 12.0689174,25.3734534 11.5333544,25.2625295 L11.5333544,25.2625295 C11.5341189,25.2555967 11.5631716,24.6266429 12.1201418,24.4487025 C12.6771121,24.2711473 14.0360889,24.0431371 14.5655355,25.7270233 C15.391243,28.352607 13.5364594,30.1766887 10.512306,30.6265466 C9.54936295,30.7694382 8.4679156,30.7779115 7.31574793,30.6196139 C0.0208522273,29.6174474 -0.0831257442,20.2162631 0.0170295078,17.7397333 C1.23188978,7.74310337 9.68124678,1.0658141e-13 19.9307224,1.0658141e-13 C31.0146977,1.0658141e-13 40,9.0530066 40,20.2204997 C40,23.8925425 39.0236774,27.3323384 37.3256254,30.3007077 C37.1088772,15.069857 30.039522,9.17972173 26.8196453,7.28400173 L26.8196453,7.28400173 Z M33.3901356,21.750402 C34.5484197,26.9630543 34.3557546,31.6804006 34.0170616,34.6194983 C32.0972919,36.5256174 29.7979261,38.0423475 27.2443494,39.0502913 C28.8017254,36.8460642 30.6614784,33.8226181 31.972289,30.4271147 C33.1684179,27.3277936 33.4467119,24.2303982 33.3901356,21.750402 Z M25.5390342,23.0760195 C25.5715274,22.6573588 25.8444695,21.3855857 25.6648017,21.7611092 C23.8016082,25.658081 18.7839065,24.0720235 18.7839065,24.0720235 C22.1448416,29.1132829 19.5484505,32.5453758 19.5484505,32.5453758 C23.1085492,30.4185643 25.2163967,27.2718694 25.5390342,23.0760195 Z M10.9052816,8.50686053 C7.4415154,11.2198739 5.21325218,15.4580906 5.21325218,20.2204997 C5.21325218,20.6957778 5.12532963,22.068846 5.27900296,21.6293871 C6.87345928,17.0687978 11.3296034,18.1021617 11.3296034,18.1021617 C7.5068839,12.7100284 10.9052816,8.50686053 10.9052816,8.50686053 Z M23.9819259,17.7155072 C23.9815436,17.7158923 23.9815436,17.7166627 23.9811614,17.7170478 C23.9815436,17.7166627 23.9819259,17.7158923 23.9819259,17.7155072" id="Combined-Shape" fill="#EE0B6F"></path>
    </g>
</svg>
